<?xml version="1.0" encoding="UTF-8"?>
<!DOCTYPE svg PUBLIC "-//W3C//DTD SVG 1.1//EN" "http://www.w3.org/Graphics/SVG/1.1/DTD/svg11.dtd">
<svg xmlns="http://www.w3.org/2000/svg" version="1.1" width="860px" height="860px" style="shape-rendering:geometricPrecision; text-rendering:geometricPrecision; image-rendering:optimizeQuality; fill-rule:evenodd; clip-rule:evenodd" xmlns:xlink="http://www.w3.org/1999/xlink">
<g><path style="opacity:0.995" fill="#1dd75f" d="M 407.5,0.5 C 561.728,-2.62615 685.228,56.7072 778,178.5C 855.207,290.728 876.874,413.061 843,545.5C 804.633,672.191 725.8,764.025 606.5,821C 503.091,865.456 397.757,870.456 290.5,836C 154.939,786.105 64.4385,692.605 19,555.5C -16.1456,432.464 -1.47889,315.797 63,205.5C 132.459,96.1294 231.293,29.6294 359.5,6C 375.598,3.69234 391.598,1.85901 407.5,0.5 Z M 327.5,228.5 C 421.254,224.75 513.254,235.583 603.5,261C 647.273,273.584 688.606,291.584 727.5,315C 748.704,335.988 748.704,356.988 727.5,378C 715.309,386.409 702.309,388.076 688.5,383C 625.577,347.693 558.244,325.359 486.5,316C 401.995,303.809 317.662,304.809 233.5,319C 215.344,322.706 197.344,327.039 179.5,332C 150.462,332.627 135.295,318.461 134,289.5C 137.861,267.974 150.695,255.474 172.5,252C 223.51,238.881 275.177,231.047 327.5,228.5 Z M 338.5,375.5 C 440.343,372.835 537.343,393.001 629.5,436C 643.826,443.494 657.826,451.494 671.5,460C 682.703,470.917 685.536,483.751 680,498.5C 672.014,513.576 659.514,519.743 642.5,517C 569.822,475 491.489,450.666 407.5,444C 337.234,437.751 268.234,444.418 200.5,464C 178.06,464.611 165.393,453.778 162.5,431.5C 163.21,419.908 168.21,410.741 177.5,404C 200.885,395.487 224.885,389.153 249.5,385C 279.125,379.991 308.792,376.824 338.5,375.5 Z M 340.5,515.5 C 421.285,512.018 498.619,526.518 572.5,559C 588.153,566.825 603.486,575.158 618.5,584C 630.829,594.96 632.662,607.46 624,621.5C 617.222,629.205 608.722,632.371 598.5,631C 582.213,622.746 565.879,614.413 549.5,606C 479.598,575.849 406.598,563.516 330.5,569C 291.04,571.494 252.04,577.161 213.5,586C 194.202,588.2 183.202,579.7 180.5,560.5C 181.356,549.941 186.356,542.108 195.5,537C 243.27,525.105 291.603,517.938 340.5,515.5 Z"/></g>
</svg>
