<?xml version="1.0" encoding="UTF-8"?>
<!DOCTYPE svg PUBLIC "-//W3C//DTD SVG 1.1//EN" "http://www.w3.org/Graphics/SVG/1.1/DTD/svg11.dtd">
<svg xmlns="http://www.w3.org/2000/svg" version="1.1" width="512px" height="512px" style="shape-rendering:geometricPrecision; text-rendering:geometricPrecision; image-rendering:optimizeQuality; fill-rule:evenodd; clip-rule:evenodd" xmlns:xlink="http://www.w3.org/1999/xlink">
<g><path style="opacity:0.962" fill="#ed1b23" d="M 52.5,200.5 C 58.2055,200.171 63.8722,200.505 69.5,201.5C 76.2349,220.205 83.0683,238.872 90,257.5C 90.4999,238.503 90.6666,219.503 90.5,200.5C 96.5,200.5 102.5,200.5 108.5,200.5C 108.5,235.167 108.5,269.833 108.5,304.5C 102.428,304.656 96.4285,305.323 90.5,306.5C 89.914,306.291 89.414,305.957 89,305.5C 83.1971,288.424 77.1971,271.424 71,254.5C 70.5001,272.497 70.3334,290.497 70.5,308.5C 64.5436,309.494 58.5436,310.161 52.5,310.5C 52.5,273.833 52.5,237.167 52.5,200.5 Z"/></g>
<g><path style="opacity:0.952" fill="#ec1b23" d="M 305.5,200.5 C 311.5,200.5 317.5,200.5 323.5,200.5C 323.5,227.167 323.5,253.833 323.5,280.5C 333.161,280.958 342.828,281.291 352.5,281.5C 352.5,287.5 352.5,293.5 352.5,299.5C 336.833,298.833 321.167,298.167 305.5,297.5C 305.5,265.167 305.5,232.833 305.5,200.5 Z"/></g>
<g><path style="opacity:0.967" fill="#ed1b23" d="M 397.5,200.5 C 403.842,200.334 410.175,200.5 416.5,201C 420.067,209.867 423.734,218.7 427.5,227.5C 431.641,218.72 435.641,209.886 439.5,201C 446.167,200.333 452.833,200.333 459.5,201C 451.893,218.215 444.559,235.548 437.5,253C 444.28,272.225 451.614,291.225 459.5,310C 452.377,310.34 445.377,309.507 438.5,307.5C 434.758,297.689 430.758,288.022 426.5,278.5C 422.517,287.136 418.517,295.803 414.5,304.5C 414,304.833 413.5,305.167 413,305.5C 407.103,304.86 401.269,303.86 395.5,302.5C 402.896,285.973 409.896,269.306 416.5,252.5C 410.159,235.155 403.826,217.822 397.5,200.5 Z"/></g>
<g><path style="opacity:0.961" fill="#ec1b24" d="M 124.5,200.5 C 140.5,200.5 156.5,200.5 172.5,200.5C 172.5,206.5 172.5,212.5 172.5,218.5C 162.5,218.5 152.5,218.5 142.5,218.5C 142.5,225.833 142.5,233.167 142.5,240.5C 150.167,240.5 157.833,240.5 165.5,240.5C 165.5,246.5 165.5,252.5 165.5,258.5C 157.833,258.5 150.167,258.5 142.5,258.5C 142.169,266.86 142.502,275.193 143.5,283.5C 153.101,282.219 162.768,281.552 172.5,281.5C 172.808,287.425 172.475,293.259 171.5,299C 155.817,300.04 140.15,301.206 124.5,302.5C 124.5,268.5 124.5,234.5 124.5,200.5 Z"/></g>
<g><path style="opacity:0.955" fill="#ed1b23" d="M 182.5,200.5 C 200.5,200.5 218.5,200.5 236.5,200.5C 236.5,206.5 236.5,212.5 236.5,218.5C 230.5,218.5 224.5,218.5 218.5,218.5C 218.5,244.833 218.5,271.167 218.5,297.5C 212.5,297.5 206.5,297.5 200.5,297.5C 200.5,271.167 200.5,244.833 200.5,218.5C 194.5,218.5 188.5,218.5 182.5,218.5C 182.5,212.5 182.5,206.5 182.5,200.5 Z"/></g>
<g><path style="opacity:0.96" fill="#ed1b23" d="M 246.5,200.5 C 262.833,200.5 279.167,200.5 295.5,200.5C 295.5,206.5 295.5,212.5 295.5,218.5C 285.167,218.5 274.833,218.5 264.5,218.5C 264.5,225.5 264.5,232.5 264.5,239.5C 272.167,239.5 279.833,239.5 287.5,239.5C 287.5,245.5 287.5,251.5 287.5,257.5C 279.833,257.5 272.167,257.5 264.5,257.5C 264.5,270.5 264.5,283.5 264.5,296.5C 258.5,296.5 252.5,296.5 246.5,296.5C 246.5,264.5 246.5,232.5 246.5,200.5 Z"/></g>
<g><path style="opacity:0.947" fill="#ec1b23" d="M 365.5,200.5 C 371.5,200.5 377.5,200.5 383.5,200.5C 383.5,234.5 383.5,268.5 383.5,302.5C 377.5,301.833 371.5,301.167 365.5,300.5C 365.5,267.167 365.5,233.833 365.5,200.5 Z"/></g>
</svg>
