<?xml version="1.0" encoding="UTF-8"?>
<!DOCTYPE svg PUBLIC "-//W3C//DTD SVG 1.1//EN" "http://www.w3.org/Graphics/SVG/1.1/DTD/svg11.dtd">
<svg xmlns="http://www.w3.org/2000/svg" version="1.1" width="512px" height="512px" style="shape-rendering:geometricPrecision; text-rendering:geometricPrecision; image-rendering:optimizeQuality; fill-rule:evenodd; clip-rule:evenodd" xmlns:xlink="http://www.w3.org/1999/xlink">
<g><path style="opacity:0.972" fill="#00a8e1" d="M 216.5,115.5 C 232.289,117.476 236.623,125.643 229.5,140C 223.204,143.785 216.538,144.452 209.5,142C 202.904,135.869 201.737,128.702 206,120.5C 209.147,117.841 212.647,116.174 216.5,115.5 Z"/></g>
<g><path style="opacity:0.986" fill="#00a8e1" d="M 79.5,153.5 C 100.604,153.11 113.771,163.11 119,183.5C 123.19,202.371 119.857,219.705 109,235.5C 99.785,244.933 88.6183,248.433 75.5,246C 69.9258,244.796 64.7591,242.629 60,239.5C 59.6667,252.5 59.3333,265.5 59,278.5C 58.2496,279.126 57.4162,279.626 56.5,280C 49.8333,280.667 43.1667,280.667 36.5,280C 35.3333,279.5 34.5,278.667 34,277.5C 33.3333,237.833 33.3333,198.167 34,158.5C 34.5,158 35,157.5 35.5,157C 41.5,156.333 47.5,156.333 53.5,157C 55.6277,158.623 56.961,160.789 57.5,163.5C 63.9546,158.024 71.2879,154.691 79.5,153.5 Z M 71.5,173.5 C 84.9014,172.728 92.4014,179.062 94,192.5C 95.6735,202.768 94.0068,212.434 89,221.5C 79.8433,227.828 70.3433,228.161 60.5,222.5C 59.1667,207.5 59.1667,192.5 60.5,177.5C 64.1705,175.816 67.8372,174.482 71.5,173.5 Z"/></g>
<g><path style="opacity:0.97" fill="#00a7e1" d="M 300.5,153.5 C 311.897,152.013 321.064,155.679 328,164.5C 340.54,155.573 354.373,152.406 369.5,155C 377.766,157.599 382.932,163.099 385,171.5C 385.827,195.739 385.661,219.906 384.5,244C 376.833,244.667 369.167,244.667 361.5,244C 361,243.5 360.5,243 360,242.5C 359.667,221.5 359.333,200.5 359,179.5C 356.935,175.878 353.768,173.878 349.5,173.5C 343.269,173.856 337.436,175.522 332,178.5C 331.828,200.406 331.328,222.239 330.5,244C 322.833,244.667 315.167,244.667 307.5,244C 307,243.5 306.5,243 306,242.5C 305.667,221.833 305.333,201.167 305,180.5C 303.428,176.12 300.261,173.786 295.5,173.5C 289.269,173.856 283.436,175.522 278,178.5C 277.667,199.833 277.333,221.167 277,242.5C 276.5,243 276,243.5 275.5,244C 267.587,244.814 259.754,244.647 252,243.5C 251.333,214.833 251.333,186.167 252,157.5C 258.418,156.357 264.918,156.19 271.5,157C 273.235,159.192 274.402,161.692 275,164.5C 282.823,158.998 291.323,155.332 300.5,153.5 Z"/></g>
<g><path style="opacity:0.978" fill="#00a8e1" d="M 436.5,153.5 C 449.35,151.796 461.016,154.63 471.5,162C 480.628,173.037 481.795,184.87 475,197.5C 472.292,201.104 468.792,203.604 464.5,205C 451.424,209.982 438.09,210.816 424.5,207.5C 426.259,221.818 434.425,228.484 449,227.5C 457.849,226.552 466.682,225.552 475.5,224.5C 475.829,230.206 475.495,235.872 474.5,241.5C 460.299,247.382 445.633,248.882 430.5,246C 415.224,241.724 405.724,231.891 402,216.5C 397.131,196.142 401.631,178.309 415.5,163C 421.848,158.171 428.848,155.005 436.5,153.5 Z M 441.5,171.5 C 452.775,171.585 456.942,176.919 454,187.5C 452.048,189.894 449.548,191.394 446.5,192C 439.111,192.801 431.777,192.467 424.5,191C 425.696,180.356 431.363,173.856 441.5,171.5 Z"/></g>
<g><path style="opacity:0.974" fill="#00a7e0" d="M 180.5,155.5 C 184.767,155.203 188.934,155.536 193,156.5C 193.667,163.5 193.667,170.5 193,177.5C 192.5,178 192,178.5 191.5,179C 184.976,179.266 178.476,179.766 172,180.5C 168.769,180.889 165.769,181.889 163,183.5C 162.667,203.167 162.333,222.833 162,242.5C 158.091,243.796 153.925,244.463 149.5,244.5C 145.5,244.333 141.5,244.167 137.5,244C 136.338,215.572 136.172,187.072 137,158.5C 137.5,158 138,157.5 138.5,157C 144.5,156.333 150.5,156.333 156.5,157C 158.676,160.511 160.176,164.344 161,168.5C 166.367,162.271 172.867,157.937 180.5,155.5 Z"/></g>
<g><path style="opacity:0.994" fill="#00a7e0" d="M 206.5,156.5 C 214.174,156.334 221.841,156.5 229.5,157C 230.126,157.75 230.626,158.584 231,159.5C 231.667,186.833 231.667,214.167 231,241.5C 230.626,242.416 230.126,243.25 229.5,244C 221.587,244.814 213.754,244.647 206,243.5C 205.829,215.595 205.329,187.761 204.5,160C 205.305,158.887 205.972,157.721 206.5,156.5 Z"/></g>
<g><path style="opacity:0.975" fill="#00a8e1" d="M 433.5,295.5 C 443.172,295.334 452.839,295.5 462.5,296C 467.352,296.713 472.019,298.046 476.5,300C 477.893,301.171 478.727,302.671 479,304.5C 479.789,331.137 471.289,354.304 453.5,374C 451.194,376.139 448.527,377.639 445.5,378.5C 443.261,378.426 442.261,377.259 442.5,375C 448.329,360.513 453.162,345.679 457,330.5C 460.161,319.964 456.327,314.464 445.5,314C 429.911,313.129 414.411,313.962 399,316.5C 396.837,316.505 395.337,315.505 394.5,313.5C 397.616,308.594 401.949,305.094 407.5,303C 416.024,299.54 424.691,297.04 433.5,295.5 Z"/></g>
<g><path style="opacity:0.982" fill="#00a8e1" d="M 33.5,303.5 C 44.2481,307.204 54.5815,312.038 64.5,318C 185.776,374.649 308.443,377.815 432.5,327.5C 441.474,330.6 442.474,335.433 435.5,342C 380.385,378.12 319.718,396.286 253.5,396.5C 168.687,395.19 94.8536,366.523 32,310.5C 31.1668,307.829 31.6668,305.496 33.5,303.5 Z"/></g>
</svg>
