<?xml version="1.0" encoding="UTF-8"?>
<!DOCTYPE svg PUBLIC "-//W3C//DTD SVG 1.1//EN" "http://www.w3.org/Graphics/SVG/1.1/DTD/svg11.dtd">
<svg xmlns="http://www.w3.org/2000/svg" version="1.1" width="757px" height="567px" style="shape-rendering:geometricPrecision; text-rendering:geometricPrecision; image-rendering:optimizeQuality; fill-rule:evenodd; clip-rule:evenodd" xmlns:xlink="http://www.w3.org/1999/xlink">
<g><path style="opacity:1" fill="#171817" d="M -0.5,-0.5 C 251.833,-0.5 504.167,-0.5 756.5,-0.5C 756.5,0.166667 756.5,0.833333 756.5,1.5C 504.167,1.5 251.833,1.5 -0.5,1.5C -0.5,0.833333 -0.5,0.166667 -0.5,-0.5 Z"/></g>
<g><path style="opacity:1" fill="#010101" d="M -0.5,1.5 C 251.833,1.5 504.167,1.5 756.5,1.5C 756.5,189.167 756.5,376.833 756.5,564.5C 504.167,564.5 251.833,564.5 -0.5,564.5C -0.5,376.833 -0.5,189.167 -0.5,1.5 Z"/></g>
<g><path style="opacity:1" fill="#c80b23" d="M 183.5,7.5 C 224.847,6.83895 265.847,7.50562 306.5,9.5C 265.402,8.83878 224.402,8.17212 183.5,7.5 Z"/></g>
<g><path style="opacity:1" fill="#fe0120" d="M 183.5,7.5 C 224.402,8.17212 265.402,8.83878 306.5,9.5C 327.204,54.5887 347.537,99.922 367.5,145.5C 368.656,234.145 368.823,322.812 368,411.5C 367.692,412.308 367.192,412.975 366.5,413.5C 365.511,411.414 364.178,409.747 362.5,408.5C 347.017,374.036 331.35,339.703 315.5,305.5C 314.892,302.673 313.892,300.007 312.5,297.5C 312.5,297.167 312.5,296.833 312.5,296.5C 286.162,239.578 260.329,182.245 235,124.5C 230.354,115.208 225.687,105.875 221,96.5C 210.049,71.2527 199.049,45.9194 188,20.5C 186.434,17.248 184.601,14.248 182.5,11.5C 182.232,9.90097 182.566,8.56764 183.5,7.5 Z"/></g>
<g><path style="opacity:1" fill="#a90019" d="M 425.5,8.5 C 468.5,8.5 511.5,8.5 554.5,8.5C 554.5,191.5 554.5,374.5 554.5,557.5C 553.25,557.423 552.417,556.756 552,555.5C 536.707,518.922 520.374,482.922 503,447.5C 493.212,423.259 482.879,399.259 472,375.5C 456.015,341.204 440.182,306.87 424.5,272.5C 425.499,184.668 425.833,96.6682 425.5,8.5 Z"/></g>
<g><path style="opacity:1" fill="#8f0317" d="M 425.5,8.5 C 425.5,8.16667 425.5,7.83333 425.5,7.5C 468.833,7.5 512.167,7.5 555.5,7.5C 555.5,192.5 555.5,377.5 555.5,562.5C 552.287,562.81 549.287,562.477 546.5,561.5C 549.167,561.5 551.833,561.5 554.5,561.5C 554.5,560.167 554.5,558.833 554.5,557.5C 554.5,374.5 554.5,191.5 554.5,8.5C 511.5,8.5 468.5,8.5 425.5,8.5 Z"/></g>
<g><path style="opacity:1" fill="#b80519" d="M 183.5,7.5 C 182.566,8.56764 182.232,9.90097 182.5,11.5C 182.5,194.833 182.5,378.167 182.5,561.5C 183.5,561.5 184.5,561.5 185.5,561.5C 184.432,562.434 183.099,562.768 181.5,562.5C 181.167,377.165 181.5,191.832 182.5,6.5C 183.107,6.62358 183.44,6.95691 183.5,7.5 Z"/></g>
<g><path style="opacity:1" fill="#180202" d="M 425.5,7.5 C 425.5,7.83333 425.5,8.16667 425.5,8.5C 425.833,96.6682 425.499,184.668 424.5,272.5C 424.443,271.391 424.11,270.391 423.5,269.5C 424.167,182.167 424.833,94.8333 425.5,7.5 Z"/></g>
<g><path style="opacity:1" fill="#d6011c" d="M 182.5,11.5 C 184.601,14.248 186.434,17.248 188,20.5C 199.049,45.9194 210.049,71.2527 221,96.5C 225.687,105.875 230.354,115.208 235,124.5C 260.329,182.245 286.162,239.578 312.5,296.5C 311.161,380.373 309.828,464.373 308.5,548.5C 288.132,549.746 267.799,551.412 247.5,553.5C 237.508,553.454 227.842,554.787 218.5,557.5C 207.741,559.679 196.741,561.012 185.5,561.5C 184.5,561.5 183.5,561.5 182.5,561.5C 182.5,378.167 182.5,194.833 182.5,11.5 Z"/></g>
<g><path style="opacity:1" fill="#d6011c" d="M 367.5,145.5 C 386.663,186.501 405.33,227.835 423.5,269.5C 424.11,270.391 424.443,271.391 424.5,272.5C 440.182,306.87 456.015,341.204 472,375.5C 482.879,399.259 493.212,423.259 503,447.5C 520.374,482.922 536.707,518.922 552,555.5C 552.417,556.756 553.25,557.423 554.5,557.5C 554.5,558.833 554.5,560.167 554.5,561.5C 551.833,561.5 549.167,561.5 546.5,561.5C 533.75,560.49 521.083,558.823 508.5,556.5C 501.766,554.547 494.766,553.547 487.5,553.5C 466.536,552.367 445.703,550.367 425,547.5C 404.02,501.27 383.186,454.936 362.5,408.5C 364.178,409.747 365.511,411.414 366.5,413.5C 367.192,412.975 367.692,412.308 368,411.5C 368.823,322.812 368.656,234.145 367.5,145.5 Z"/></g>
<g><path style="opacity:1" fill="#c70621" d="M 312.5,296.5 C 312.5,296.833 312.5,297.167 312.5,297.5C 311.501,380.665 311.167,463.998 311.5,547.5C 310.791,548.404 309.791,548.737 308.5,548.5C 309.828,464.373 311.161,380.373 312.5,296.5 Z"/></g>
<g><path style="opacity:1" fill="#190002" d="M 312.5,297.5 C 313.892,300.007 314.892,302.673 315.5,305.5C 314.85,305.196 314.183,304.863 313.5,304.5C 312.833,385.666 312.167,466.666 311.5,547.5C 311.167,463.998 311.501,380.665 312.5,297.5 Z"/></g>
<g><path style="opacity:1" fill="#950617" d="M 487.5,553.5 C 494.766,553.547 501.766,554.547 508.5,556.5C 501.264,556.235 494.264,555.235 487.5,553.5 Z"/></g>
<g><path style="opacity:1" fill="#af0419" d="M 247.5,553.5 C 238.068,555.552 228.401,556.885 218.5,557.5C 227.842,554.787 237.508,553.454 247.5,553.5 Z"/></g>
<g><path style="opacity:1" fill="#141414" d="M -0.5,564.5 C 251.833,564.5 504.167,564.5 756.5,564.5C 756.5,565.167 756.5,565.833 756.5,566.5C 504.167,566.5 251.833,566.5 -0.5,566.5C -0.5,565.833 -0.5,565.167 -0.5,564.5 Z"/></g>
</svg>
